<?xml version="1.0" encoding="iso-8859-1"?>
<!-- Generator: Adobe Illustrator 21.0.0, SVG Export Plug-In . SVG Version: 6.00 Build 0)  -->
<svg version="1.1" id="Layer_1" xmlns="http://www.w3.org/2000/svg" xmlns:xlink="http://www.w3.org/1999/xlink" x="0px" y="0px"
	 viewBox="0 0 98.624 98.624" style="enable-background:new 0 0 98.624 98.624;" xml:space="preserve">
<path d="M49.312,0C22.078,0,0,22.078,0,49.312s22.078,49.312,49.312,49.312s49.312-22.078,49.312-49.312S76.546,0,49.312,0z
	 M70.696,55.83c0.388,0.48,1.311,1.415,2.771,2.807h0.034l0.034,0.033l0.034,0.035l0.069,0.068c3.216,2.988,5.394,5.509,6.535,7.562
	c0.069,0.113,0.143,0.257,0.223,0.428c0.079,0.171,0.159,0.473,0.239,0.906c0.079,0.435,0.073,0.821-0.017,1.163
	c-0.091,0.341-0.376,0.657-0.855,0.941c-0.479,0.286-1.152,0.428-2.019,0.428l-8.759,0.138c-0.547,0.114-1.186,0.057-1.916-0.171
	c-0.731-0.229-1.323-0.48-1.779-0.753l-0.685-0.412c-0.685-0.479-1.483-1.209-2.395-2.189c-0.913-0.981-1.694-1.865-2.344-2.652
	s-1.346-1.447-2.088-1.985c-0.742-0.536-1.386-0.713-1.933-0.53c-0.068,0.024-0.16,0.064-0.274,0.12
	c-0.115,0.057-0.308,0.221-0.582,0.496c-0.274,0.274-0.519,0.611-0.736,1.009c-0.217,0.4-0.411,0.993-0.582,1.78
	c-0.171,0.786-0.246,1.671-0.222,2.652c0,0.341-0.041,0.656-0.12,0.941c-0.08,0.285-0.166,0.496-0.257,0.632l-0.137,0.171
	c-0.411,0.435-1.015,0.685-1.813,0.753h-3.935c-1.62,0.092-3.285-0.096-4.995-0.564c-1.71-0.469-3.211-1.072-4.499-1.814
	c-1.29-0.74-2.464-1.493-3.524-2.257c-1.061-0.765-1.865-1.42-2.412-1.967l-0.855-0.822c-0.228-0.227-0.542-0.57-0.941-1.027
	c-0.399-0.456-1.214-1.493-2.446-3.113c-1.232-1.62-2.441-3.341-3.627-5.167c-1.186-1.825-2.583-4.232-4.192-7.22
	c-1.608-2.987-3.096-6.089-4.465-9.306c-0.137-0.364-0.206-0.672-0.206-0.923c0-0.25,0.034-0.433,0.103-0.548l0.137-0.205
	c0.342-0.434,0.992-0.651,1.95-0.651l9.375-0.068c0.274,0.046,0.536,0.12,0.787,0.223c0.251,0.102,0.434,0.199,0.548,0.29
	l0.171,0.103c0.365,0.252,0.638,0.616,0.821,1.095c0.456,1.142,0.981,2.322,1.574,3.542c0.593,1.22,1.061,2.15,1.403,2.788
	l0.547,0.993c0.661,1.368,1.3,2.555,1.916,3.558c0.617,1.004,1.169,1.786,1.66,2.344c0.49,0.559,0.963,0.999,1.42,1.317
	c0.456,0.32,0.844,0.48,1.164,0.48c0.319,0,0.627-0.057,0.924-0.171c0.045-0.023,0.102-0.08,0.171-0.171s0.205-0.342,0.411-0.754
	c0.205-0.41,0.359-0.946,0.462-1.608c0.103-0.66,0.211-1.584,0.325-2.77c0.114-1.187,0.114-2.612,0-4.277
	c-0.046-0.913-0.149-1.745-0.308-2.498c-0.16-0.752-0.32-1.277-0.479-1.574l-0.206-0.41c-0.57-0.775-1.539-1.266-2.908-1.472
	c-0.297-0.044-0.24-0.318,0.171-0.82c0.388-0.434,0.821-0.775,1.3-1.027c1.209-0.592,3.935-0.866,8.178-0.822
	c1.87,0.024,3.41,0.171,4.619,0.445c0.456,0.115,0.838,0.268,1.146,0.462c0.308,0.193,0.542,0.468,0.702,0.82
	c0.159,0.354,0.279,0.719,0.359,1.095c0.08,0.377,0.12,0.897,0.12,1.557c0,0.662-0.011,1.29-0.034,1.882
	c-0.023,0.593-0.051,1.398-0.085,2.412c-0.034,1.015-0.052,1.957-0.052,2.823c0,0.252-0.011,0.73-0.034,1.437
	c-0.023,0.708-0.03,1.255-0.017,1.642c0.011,0.388,0.051,0.851,0.119,1.386c0.069,0.536,0.2,0.982,0.394,1.334
	c0.193,0.354,0.45,0.633,0.77,0.838c0.182,0.047,0.376,0.092,0.582,0.138c0.205,0.045,0.501-0.079,0.889-0.377
	c0.387-0.296,0.821-0.69,1.3-1.18c0.479-0.489,1.072-1.253,1.779-2.292c0.706-1.036,1.482-2.263,2.326-3.678
	c1.369-2.372,2.589-4.939,3.661-7.699c0.091-0.229,0.205-0.428,0.342-0.599c0.137-0.172,0.262-0.292,0.376-0.36l0.137-0.103
	c0.045-0.023,0.102-0.051,0.171-0.085c0.069-0.033,0.217-0.068,0.445-0.103c0.228-0.033,0.456-0.039,0.685-0.016l9.854-0.07
	c0.889-0.113,1.619-0.085,2.189,0.085c0.57,0.171,0.924,0.36,1.061,0.565l0.206,0.342c0.524,1.461-1.186,4.812-5.132,10.059
	c-0.548,0.731-1.29,1.701-2.224,2.909c-1.779,2.282-2.805,3.776-3.077,4.485C69.829,53.995,69.989,54.919,70.696,55.83z"/>
</svg>
